<?xml version="1.0" standalone="no"?><!DOCTYPE svg PUBLIC "-//W3C//DTD SVG 1.1//EN" "http://www.w3.org/Graphics/SVG/1.1/DTD/svg11.dtd"><svg t="1571278563775" class="icon" viewBox="0 0 1024 1024" version="1.1" xmlns="http://www.w3.org/2000/svg" p-id="16951" xmlns:xlink="http://www.w3.org/1999/xlink" width="16" height="16"><defs><style type="text/css"></style></defs><path d="M159.073745 967.187948a102.985143 102.985143 0 0 1-73.366275-30.214649c-40.789777-40.789777-40.130161-107.793953 1.446899-149.392291l351.447439-351.468717c-42.300509-101.836135-19.107574-220.758442 59.365402-299.231418a272.357403 272.357403 0 0 1 193.863148-80.302878c36.108634 0 71.281039 6.936603 104.517154 20.618306a15.958442 15.958442 0 0 1 5.213091 26.022899l-150.605133 150.605132 21.426868 96.452821 96.45282 21.426868 150.626411-150.605133a15.958442 15.958442 0 0 1 26.022899 5.213091 273.591522 273.591522 0 0 1-59.684572 298.380302 272.48507 272.48507 0 0 1-193.884426 80.324155h-0.021278c-36.002244 0-72.174712-7.234494-105.325714-20.980031l-351.468717 351.468717a106.815169 106.815169 0 0 1-76.026016 31.682826z m532.756613-878.671792a240.653299 240.653299 0 0 0-171.287272 70.940592 243.185371 243.185371 0 0 0-48.449829 273.50641 15.915886 15.915886 0 0 1-3.191688 18.001123l-359.171325 359.171324c-29.150753 29.150753-29.789091 75.898348-1.446899 104.24054 27.491075 27.469797 76.026016 26.767626 104.261819-1.446898l359.171324-359.171325a15.937164 15.937164 0 0 1 18.001122-3.191688 244.483325 244.483325 0 0 0 102.176582 22.533319c64.706161 0 125.53974-25.214338 171.329829-70.96187a241.738473 241.738473 0 0 0 60.918691-240.589465l-138.944831 138.944831a15.87333 15.87333 0 0 1-14.7456 4.298141l-114.922058-25.512229a15.958442 15.958442 0 0 1-12.107137-12.107138l-25.512229-114.922057a15.958442 15.958442 0 0 1 4.29814-14.7456l138.923554-138.923553a242.057642 242.057642 0 0 0-69.302193-10.064457z m-521.30909 825.64721a62.046421 62.046421 0 0 1-43.83252-105.836384c23.426992-23.426992 64.259325-23.426992 87.665039 0a62.046421 62.046421 0 0 1-43.832519 105.836384z m0-92.069569a30.10826 30.10826 0 0 0-21.256645 51.343626c11.36241 11.341132 31.150878 11.319855 42.534567 0a30.10826 30.10826 0 0 0-21.277922-51.343626z" p-id="16952" fill="#6f6f6f"></path></svg>