<?xml version="1.0" standalone="no"?><!DOCTYPE svg PUBLIC "-//W3C//DTD SVG 1.1//EN" "http://www.w3.org/Graphics/SVG/1.1/DTD/svg11.dtd"><svg t="1571278752488" class="icon" viewBox="0 0 1024 1024" version="1.1" xmlns="http://www.w3.org/2000/svg" p-id="25297" xmlns:xlink="http://www.w3.org/1999/xlink" width="16" height="16"><defs><style type="text/css"></style></defs><path d="M893.456828 709.055005" p-id="25298" fill="#6f6f6f"></path><path d="M491.889987 337.939709" p-id="25299" fill="#6f6f6f"></path><path d="M568.154951 338.993714" p-id="25300" fill="#6f6f6f"></path><path d="M283.210223 466.918245l488.611314 0c10.356882 0 19.701714-4.154623 25.634844-12.667507 6.382361-9.153474 7.825222-20.685111 3.908006-31.328519l-47.859008-132.954081c-5.875824-15.974833-23.227004-27.710109-41.265846-27.710109L342.801437 262.258029c-17.36039 0-35.103496 12.929474-41.294498 29.67895l-47.810912 130.478703c-3.945869 10.748808-2.39863 22.50455 4.031826 31.734772C263.680425 462.672548 272.966928 466.918245 283.210223 466.918245zM338.234421 304.738539c0.554632-1.366114 3.315512-3.594875 4.567016-3.594875l369.437074 0c1.76725 0 4.117784 1.197268 4.490268 1.664919l45.183062 125.225049L292.936749 428.033633 338.234421 304.738539z" p-id="25301" fill="#6f6f6f"></path><path d="M972.687334 414.20979c0-35.658128-29.160133-63.948451-66.384943-63.948451l-42.574654 0-35.744086-92.192725c-1.00284-2.608407-1.967818-5.725398-2.952238-8.467859-8.809643-24.583908-23.542182-66.138326-82.751702-66.138326l-79.518055 0-30.703279-61.983703c-3.353374-6.439666-13.566994-26.02063-37.711903-26.02063L460.69552 95.458095c-24.096814 0-34.253128 18.854417-37.759999 25.38004l-32.213679 62.624293-77.969792 0c-53.181223 0-79.045287 56.713676-85.694731 73.997318l-35.753295 92.801593L148.728346 350.261339c-37.22481 0-66.375733 28.290323-66.375733 63.948451 0 33.144888 25.185612 59.787688 58.617026 63.361073l-8.53028 11.44875c-10.55745 27.430746-23.254633 74.021877-23.254633 105.962334l0 221.312478c0 43.645033 35.124985 79.149665 78.282924 79.149665s78.282924-35.504632 78.282924-79.149665l0-16.800641 498.350119 0 0 16.800641c0 42.900066 38.320771 79.149665 83.399455 79.149665s83.399455-36.249599 83.399455-79.149665L930.899602 594.981946c0-29.829376-4.40738-76.331479-15.872502-106.11276l-2.24718-11.402701C945.734472 473.490941 972.687334 447.029266 972.687334 414.20979zM906.301368 438.265672l-19.97903 0c-6.496971 0-12.564154 3.597945-16.205077 8.977465-3.6399 5.379521-4.375657 12.399401-1.958608 18.428721l10.0591 37.395702c9.56382 24.879644 12.772908 67.024509 12.772908 91.914386l0 221.312478c0 20.944008-20.956288 40.014342-44.002167 40.014342s-44.002167-19.071358-44.002167-40.014342L802.986327 781.458011c0-10.806113 0.937348-20.850887-9.869788-20.850887L255.004835 760.607124c-10.806113 0-29.16218 10.044774-29.16218 20.850887l0 34.836413c0 22.061458-17.302061 40.014342-38.885636 40.014342s-38.885636-17.952884-38.885636-40.014342L148.071384 594.981946c0-26.934442 11.970636-68.974931 20.904099-92.191702l15.851013-37.549198c2.168386-5.990434 2.417049-13.047154-1.251503-18.263969-3.659343-5.226025-8.503675-8.709359-14.876826-8.709359l-19.968797 0c-13.538341 0-27.240411-8.498558-27.240411-24.559349s13.701047-24.559349 27.240411-24.559349l55.990199 0c8.083096 0 15.344476-4.500501 18.249643-12.039197l40.597627-105.575524c8.646937-22.472827 26.714432-49.184189 49.187259-49.184189l79.226412 0c3.840468 0 7.395434-0.433882 10.41828-2.345418 0.573051 0.051165 1.14508 0.559748 1.716084 0.559748 7.098675 0 13.94971-3.691065 17.417695-10.44591l36.039821-69.993121c2.111081-3.936659 3.163039-4.646833 3.124154-4.446265l133.11474-0.302899c0.057305 0.037862 1.308809 1.033539 3.363607 4.970198l34.023908 68.731384c2.599198 5.260817 7.277754 8.045233 12.549827 9.438976 3.385097 2.795673 7.665587 3.833305 12.397355 3.833305l86.134753 0c30.249955 0 36.546358 14.358009 45.909609 40.499389 1.088798 3.038196 2.159176 6.386454 3.28686 9.299807l40.587394 104.782461c2.914376 7.538697 10.166547 12.217253 18.249643 12.217253l55.990199 0c13.538341 0 27.249621 8.498558 27.249621 24.559349S919.840732 438.265672 906.301368 438.265672z" p-id="25302" fill="#6f6f6f"></path><path d="M794.370089 524.344143c-36.603663 0-66.384943 29.78128-66.384943 66.384943s29.78128 66.375733 66.384943 66.375733 66.384943-29.772071 66.384943-66.375733S830.973752 524.344143 794.370089 524.344143zM794.370089 617.969497c-15.029298 0-27.249621-12.220323-27.249621-27.240411 0-15.029298 12.220323-27.249621 27.249621-27.249621s27.249621 12.220323 27.249621 27.249621C821.61971 605.749174 809.399387 617.969497 794.370089 617.969497z" p-id="25303" fill="#6f6f6f"></path><path d="M260.660648 524.344143c-36.603663 0-66.384943 29.78128-66.384943 66.384943s29.78128 66.375733 66.384943 66.375733 66.384943-29.772071 66.384943-66.375733S297.264311 524.344143 260.660648 524.344143zM260.660648 617.969497c-15.029298 0-27.249621-12.220323-27.249621-27.240411 0-15.029298 12.220323-27.249621 27.249621-27.249621 15.029298 0 27.249621 12.220323 27.249621 27.249621C287.910269 605.749174 275.69097 617.969497 260.660648 617.969497z" p-id="25304" fill="#6f6f6f"></path></svg>