<?xml version="1.0" standalone="no"?><!DOCTYPE svg PUBLIC "-//W3C//DTD SVG 1.1//EN" "http://www.w3.org/Graphics/SVG/1.1/DTD/svg11.dtd"><svg t="1571278856361" class="icon" viewBox="0 0 1024 1024" version="1.1" xmlns="http://www.w3.org/2000/svg" p-id="30897" xmlns:xlink="http://www.w3.org/1999/xlink" width="16" height="16"><defs><style type="text/css"></style></defs><path d="M850.133333 812.8H173.866667c-51.2 0-91.733333-41.6-91.733334-91.733333V288c0-51.2 41.6-91.733333 91.733334-91.733333h675.2c51.2 0 91.733333 41.6 91.733333 91.733333v433.066667c1.066667 50.133333-40.533333 91.733333-90.666667 91.733333zM173.866667 245.333333c-23.466667 0-42.666667 19.2-42.666667 42.666667v433.066667c0 23.466667 19.2 42.666667 42.666667 42.666666h675.2c23.466667 0 42.666667-19.2 42.666666-42.666666V288c0-23.466667-19.2-42.666667-42.666666-42.666667H173.866667z" fill="#6f6f6f" p-id="30898"></path><path d="M306.133333 529.066667h78.933334v44.8h-78.933334zM422.4 533.333333h422.4v41.6H422.4zM306.133333 445.866667h78.933334V490.666667h-78.933334zM422.4 449.066667h422.4V490.666667H422.4zM357.333333 803.2h309.333334v67.2h-309.333334z" fill="#6f6f6f" p-id="30899"></path></svg>