<?xml version="1.0" standalone="no"?><!DOCTYPE svg PUBLIC "-//W3C//DTD SVG 1.1//EN" "http://www.w3.org/Graphics/SVG/1.1/DTD/svg11.dtd"><svg t="1571278398285" class="icon" viewBox="0 0 1024 1024" version="1.1" xmlns="http://www.w3.org/2000/svg" p-id="14858" xmlns:xlink="http://www.w3.org/1999/xlink" width="16" height="16"><defs><style type="text/css"></style></defs><path d="M544 768v96a32 32 0 0 1-64 0V768H384c-141.376 0-234.666667-114.624-234.666667-256V298.666667a64 64 0 0 1 64-64h106.666667V160a32 32 0 0 1 64 0V234.666667h256V160a32 32 0 0 1 64 0V234.666667h106.666667a64 64 0 0 1 64 64v213.333333c0 141.376-93.290667 256-234.666667 256h-96z m-37.568-224H448c-27.328 0-42.090667-32.042667-24.32-52.8l109.568-128a32 32 0 0 1 48.64 41.6L517.482667 480H576c27.349333 0 42.090667 32.064 24.298667 52.821333l-109.717334 128a32 32 0 0 1-48.597333-41.642666l64.426667-75.178667zM213.333333 298.666667v213.333333c0 106.026667 64.64 192 170.666667 192h256c106.026667 0 170.666667-85.973333 170.666667-192V298.666667H213.333333z" p-id="14859" fill="#6f6f6f"></path></svg>