<?xml version="1.0" standalone="no"?><!DOCTYPE svg PUBLIC "-//W3C//DTD SVG 1.1//EN" "http://www.w3.org/Graphics/SVG/1.1/DTD/svg11.dtd"><svg t="1571278673869" class="icon" viewBox="0 0 1024 1024" version="1.1" xmlns="http://www.w3.org/2000/svg" p-id="21264" xmlns:xlink="http://www.w3.org/1999/xlink" width="16" height="16"><defs><style type="text/css"></style></defs><path d="M512 768a256 256 0 0 1-153.386667-460.16A256 256 0 0 1 768 512a256 256 0 0 1-256 256z m0-469.333333a213.333333 213.333333 0 1 0 128 42.666666 210.773333 210.773333 0 0 0-128-42.666666z" p-id="21265" fill="#6f6f6f"></path><path d="M652.8 346.026667A21.333333 21.333333 0 0 1 640 341.333333a213.333333 213.333333 0 0 0-256 0 21.333333 21.333333 0 0 1-34.346667-16.853333v-211.2a21.333333 21.333333 0 0 1 21.333334-21.333333H652.8a21.333333 21.333333 0 0 1 21.333333 21.333333v211.413333a21.333333 21.333333 0 0 1-21.333333 21.333334zM512 256a251.52 251.52 0 0 1 119.466667 29.653333V134.613333H392.533333v151.253334A251.52 251.52 0 0 1 512 256zM652.8 932.053333H371.2a21.333333 21.333333 0 0 1-21.333333-21.333333v-211.413333A21.333333 21.333333 0 0 1 384 682.666667a213.333333 213.333333 0 0 0 256 0 21.333333 21.333333 0 0 1 34.346667 16.853333v211.413333a21.333333 21.333333 0 0 1-21.546667 21.12z m-260.266667-42.666666h238.933334V738.133333a258.346667 258.346667 0 0 1-238.933334 0zM629.333333 533.333333H512a21.333333 21.333333 0 0 1 0-42.666666h117.333333a21.333333 21.333333 0 0 1 0 42.666666z" p-id="21266" fill="#6f6f6f"></path><path d="M512 533.333333a21.333333 21.333333 0 0 1-21.333333-21.333333v-140.8a21.333333 21.333333 0 0 1 42.666666 0V512a21.333333 21.333333 0 0 1-21.333333 21.333333z" p-id="21267" fill="#6f6f6f"></path></svg>