<?xml version="1.0" standalone="no"?><!DOCTYPE svg PUBLIC "-//W3C//DTD SVG 1.1//EN" "http://www.w3.org/Graphics/SVG/1.1/DTD/svg11.dtd"><svg t="1571279366365" class="icon" viewBox="0 0 1024 1024" version="1.1" xmlns="http://www.w3.org/2000/svg" p-id="44257" xmlns:xlink="http://www.w3.org/1999/xlink" width="16" height="16"><defs><style type="text/css"></style></defs><path d="M864 416v-32c0-195.2-156.8-352-352-352S160 188.8 160 384v32c-54.4 0-96 41.6-96 96v128c0 54.4 41.6 96 96 96h3.2c48 108.8 144 185.6 259.2 214.4 12.8 25.6 48 41.6 89.6 41.6 54.4 0 96-25.6 96-64s-41.6-64-96-64c-32 0-57.6 9.6-76.8 22.4-83.2-19.2-156.8-73.6-201.6-150.4 48-6.4 86.4-44.8 86.4-96v-128c0-54.4-41.6-96-96-96v-32c0-160 128-288 288-288s288 128 288 288v32c-54.4 0-96 41.6-96 96v128c0 54.4 41.6 96 96 96h64c54.4 0 96-41.6 96-96v-128c0-54.4-41.6-96-96-96zM256 512v128c0 19.2-12.8 32-32 32H185.6 160c-19.2 0-32-12.8-32-32v-128c0-19.2 12.8-32 32-32h64c19.2 0 32 12.8 32 32z m640 128c0 19.2-12.8 32-32 32h-64c-19.2 0-32-12.8-32-32v-128c0-19.2 12.8-32 32-32h64c19.2 0 32 12.8 32 32v128z" p-id="44258" fill="#8a8a8a"></path></svg>