<?xml version="1.0" standalone="no"?><!DOCTYPE svg PUBLIC "-//W3C//DTD SVG 1.1//EN" "http://www.w3.org/Graphics/SVG/1.1/DTD/svg11.dtd"><svg t="1571282511777" class="icon" viewBox="0 0 1024 1024" version="1.1" xmlns="http://www.w3.org/2000/svg" p-id="51950" width="14" height="14" xmlns:xlink="http://www.w3.org/1999/xlink"><defs><style type="text/css"></style></defs><path d="M996.437333 155.562667l-0.256-0.256L868.437333 31.829333c-32.768-32.853333-91.221333-32.853333-124.032 0l-631.466666 631.466667a17.962667 17.962667 0 0 0-3.584 5.418667c-0.469333 0.938667-0.981333 1.792-1.322667 2.730666-7.552 16.64-27.648 71.722667-98.389333 277.504-6.528 19.541333-1.28 41.002667 13.653333 55.978667 10.709333 10.709333 24.746667 16.469333 39.04 16.469333 5.717333 0 11.477333-0.896 17.024-2.773333 181.205333-61.354667 249.813333-84.565333 275.84-98.048a21.717333 21.717333 0 0 0 9.813333-5.205333L996.437333 279.594667c34.133333-34.176 34.133333-89.813333 0-124.032zM312.106667 892.714667c-38.954667 14.293333-112.682667 39.893333-179.797334 62.805333L72.96 896.170667a15909.162667 15909.162667 0 0 1 63.061333-179.541334l176.085334 176.085334z m-246.314667 85.461333c-6.186667 2.218667-10.965333-2.005333-12.288-3.370667-1.322667-1.28-5.461333-6.101333-3.456-12.117333l7.466667-21.632 29.866666 29.866667c-7.466667 2.432-14.72 4.906667-21.589333 7.253333zM966.229333 249.472L349.824 870.058667 290.432 810.666667 791.637333 309.504a21.333333 21.333333 0 0 0-30.165333-30.165333L260.266667 780.501333 158.165333 678.4 774.528 61.994667c16.725333-16.682667 46.72-17.024 63.957333 0.256l127.872 123.562666a45.738667 45.738667 0 0 1-0.128 63.658667z" p-id="51951" fill="#c4021e"></path></svg>