<?xml version="1.0" standalone="no"?><!DOCTYPE svg PUBLIC "-//W3C//DTD SVG 1.1//EN" "http://www.w3.org/Graphics/SVG/1.1/DTD/svg11.dtd"><svg t="1571279756168" class="icon" viewBox="0 0 1024 1024" version="1.1" xmlns="http://www.w3.org/2000/svg" p-id="46122" xmlns:xlink="http://www.w3.org/1999/xlink" width="16" height="16"><defs><style type="text/css"></style></defs><path d="M786.944 40.96H241.664c-53.248 0-96.768 43.52-96.768 96.768v757.76c0 53.248 43.52 96.768 96.768 96.768h545.28c53.248 0 96.768-43.52 96.768-96.768v-757.76c0-53.248-43.52-96.768-96.768-96.768zM241.664 109.568h545.28c15.872 0 28.16 12.8 28.16 28.16V640H213.504V137.728c0-15.36 12.8-28.16 28.16-28.16z m545.28 814.592H241.664c-15.872 0-28.16-12.8-28.16-28.16v-186.88h602.112V896c-0.512 15.36-12.8 28.16-28.672 28.16z m-185.344-107.52c0 18.944-15.36 34.304-34.304 34.304H461.312a34.304 34.304 0 0 1 0-68.608h106.496c18.432 0 33.792 15.36 33.792 34.304z" p-id="46123" fill="#c4021e"></path></svg>